<svg id="logo" height="119.95748318119975" viewBox="0 0 369.8947368421052 89.27296725835977" class="css-1j8o68f"><defs id="SvgjsDefs1932"></defs><g id="SvgjsG1933" featurekey="Df7oLJ-0" transform="matrix(1.311106948866829,0,0,1.311106948866829,7.035057781583886e-7,-0.0003230640963682813)" fill="#4fc1e9"><title xmlns="http://www.w3.org/2000/svg">Asset 9</title><g xmlns="http://www.w3.org/2000/svg" data-name="Layer 2"><g><path d="M21.959,67.706.686,56.956A1.249,1.249,0,0,1,0,55.84V12.589a1.249,1.249,0,0,1,1.714-1.16l21.273,8.5a1.25,1.25,0,0,1,.786,1.16v.5H22.324l-.265.664L2.5,14.435V55.072l20.587,10.4Z"></path><path d="M69,68.09A1.269,1.269,0,0,1,68.524,68L46.557,58.952a1.253,1.253,0,0,1-.774-1.157V31.5h2.5V56.959L67.75,64.974V20.493l-5.306-2.252.976-2.3,6.068,2.576a1.25,1.25,0,0,1,.762,1.151V66.84A1.25,1.25,0,0,1,69,68.09Z"></path><path d="M23.773,25.34h-2.5V21.089a1.25,1.25,0,0,1,.775-1.156l10.231-4.2.949,2.312-9.455,3.88Z"></path><path d="M22.523,67.84a1.249,1.249,0,0,1-1.25-1.25v-19h2.5V64.824l22.845-8.057L46.98,57.8h1.3v.151a1.25,1.25,0,0,1-.834,1.179L22.938,67.769A1.236,1.236,0,0,1,22.523,67.84Z"></path><path d="M57.151,42.9a1.268,1.268,0,0,1-.26-.027,1.253,1.253,0,0,1-.908-.778L48.535,22.581a1.251,1.251,0,0,1,.284-1.33l6.033-6.032a1.25,1.25,0,0,1,2.084.535l6.077,20.884a1.25,1.25,0,0,1-.317,1.233l-4.661,4.662A1.25,1.25,0,0,1,57.151,42.9ZM51.16,22.446,57.631,39.4l2.775-2.775L55.125,18.481Z"></path><path d="M42.417,16.1a1.255,1.255,0,0,1-.445-.082L22.459,8.57a1.251,1.251,0,0,1-.438-2.052l4.662-4.661a1.249,1.249,0,0,1,1.233-.316L48.8,7.618A1.25,1.25,0,0,1,49.334,9.7L43.3,15.734A1.248,1.248,0,0,1,42.417,16.1ZM25.153,6.922l16.953,6.472,3.966-3.966L27.927,4.147Z"></path><path d="M24.6,41.206a1.257,1.257,0,0,1-.446-.082L14.4,37.4a1.25,1.25,0,0,1-.438-2.052L19.3,30a1.254,1.254,0,0,1,1.233-.317l10.442,3.038a1.25,1.25,0,0,1,.534,2.084l-6.032,6.033A1.247,1.247,0,0,1,24.6,41.206Zm-7.509-5.455,7.2,2.748,3.966-3.966-7.7-2.242Z"></path><path d="M28.321,50.961a1.218,1.218,0,0,1-.261-.027,1.254,1.254,0,0,1-.907-.777L23.429,40.4a1.249,1.249,0,0,1,.284-1.329l6.033-6.033a1.249,1.249,0,0,1,2.084.534l3.039,10.443a1.251,1.251,0,0,1-.317,1.234L29.205,50.6A1.246,1.246,0,0,1,28.321,50.961ZM26.054,40.267l2.747,7.2L32.262,44l-1.377-4.729h0L30.02,36.3Z"></path><path d="M32.085,40.175a1.275,1.275,0,0,1-.5-.1,1.254,1.254,0,0,1-.7-.8l-1.264-4.344-4.343-1.263a1.252,1.252,0,0,1-.77-1.759,13.427,13.427,0,0,1,1.984-2.9L53.718,1.783C55.632-.134,61.557-.043,63.326.03a1.249,1.249,0,0,1,1.2,1.2c.073,1.77.163,7.692-1.752,9.608l-27.2,27.2a13.392,13.392,0,0,1-2.93,2.011A1.259,1.259,0,0,1,32.085,40.175Zm-4.557-8.456,3.451,1a1.252,1.252,0,0,1,.851.851l1,3.451a10.263,10.263,0,0,0,1-.788L61,9.068c.675-.675,1.05-3.723,1.046-6.565H62c-2.828,0-5.845.375-6.516,1.047l-27.2,27.2h0A10.514,10.514,0,0,0,27.528,31.719Z"></path><path d="M30.629,35.172a1.25,1.25,0,0,1-.883-2.133l4.84-4.84a1.25,1.25,0,0,1,1.768,1.767l-4.841,4.84A1.246,1.246,0,0,1,30.629,35.172Z"></path><path d="M33.572,8.808a1.25,1.25,0,0,1-.884-2.134L37.263,2.1a1.25,1.25,0,0,1,1.768,1.768L34.456,8.442A1.248,1.248,0,0,1,33.572,8.808Z"></path><path d="M58.354,33.589a1.25,1.25,0,0,1-.884-2.133l4.575-4.576a1.25,1.25,0,0,1,1.767,1.768l-4.575,4.575A1.246,1.246,0,0,1,58.354,33.589Z"></path></g></g></g><g id="SvgjsG1934" featurekey="Ua4uQk-0" transform="matrix(3.785888526774102,0,0,3.785888526774102,109.72846634235984,-4.1853054671145635)" fill="#ffffff"><path d="M6.08 17.36 c0.56 0 0.96 -0.08 1.4 -0.2 l0 2.62 c-0.44 0.2 -1.16 0.34 -2.22 0.34 c-1.74 0 -3.2 -0.58 -3.2 -3.78 l0 -4.14 l-1.46 0 l0 -2.6 l1.46 0 l0 -2.44 l3.16 0 l0 2.44 l2.22 0 l0 2.6 l-2.22 0 l0 4.14 c0 0.46 0.12 1.02 0.86 1.02 z M15.84 9.44 c0.28 0 0.56 0 0.82 0.06 l0 3.02 c-0.24 -0.06 -0.52 -0.06 -0.72 -0.06 c-1.92 0 -3.46 1.38 -3.62 3.3 l0 4.24 l-3.16 0 l0 -10.4 l3.16 0 l0 2.54 c0.48 -1.56 1.68 -2.7 3.52 -2.7 z M25.76 9.6 l3.16 0 l0 10.4 l-3.16 0 l0 -1.04 c-0.14 0.36 -1.08 1.24 -2.68 1.24 c-2.38 0 -5.12 -1.7 -5.12 -5.42 c0 -3.58 2.74 -5.36 5.12 -5.36 c1.6 0 2.54 0.92 2.68 1.14 l0 -0.96 z M23.540000000000003 17.42 c1.3 0 2.36 -0.9 2.36 -2.64 c0 -1.68 -1.06 -2.58 -2.36 -2.58 c-1.36 0 -2.52 0.92 -2.52 2.58 c0 1.72 1.16 2.64 2.52 2.64 z M42.54 9.56 l-4.66 10.44 l-2.78 0 l-4.66 -10.44 l3.14 0 l2.92 6.68 l2.9 -6.68 l3.14 0 z M49.22 9.42 c2.36 0 5.66 1.78 5 6.48 l-7.26 0 c0.36 1.08 1.3 1.64 2.56 1.64 c1.28 0 1.68 -0.28 2.4 -0.58 l1.74 1.68 c-0.92 0.9 -2.16 1.56 -4.26 1.56 c-2.58 0 -5.66 -1.78 -5.66 -5.36 c0 -3.64 3.12 -5.42 5.48 -5.42 z M49.22 12.120000000000001 c-0.9 0 -1.82 0.52 -2.22 1.56 l4.42 0 c-0.32 -1.04 -1.3 -1.56 -2.2 -1.56 z M59.18 5.859999999999999 l0 14.14 l-3.16 0 l0 -14.14 l3.16 0 z M67.9 9.44 c0.28 0 0.56 0 0.82 0.06 l0 3.02 c-0.24 -0.06 -0.52 -0.06 -0.72 -0.06 c-1.92 0 -3.46 1.38 -3.62 3.3 l0 4.24 l-3.16 0 l0 -10.4 l3.16 0 l0 2.54 c0.48 -1.56 1.68 -2.7 3.52 -2.7 z"></path></g></svg>